<?xml version="1.0" encoding="UTF-8"?>
<svg width="30px" height="30px" viewBox="0 0 30 30" version="1.1" xmlns="http://www.w3.org/2000/svg" xmlns:xlink="http://www.w3.org/1999/xlink">
    <title>kaiguan</title>
    <g id="页面-1" stroke="none" stroke-width="1" >
        <g id="heyer管理员-客户管理" transform="translate(-1850.000000, -35.000000)" >
            <g id="kaiguan" transform="translate(1850.000000, 35.000000)">
                <path d="M6.99149978,6.07049796 C6.87459524,6.17075287 6.76054967,6.27429424 6.64949989,6.38099786 C3.14547592,9.77595735 2.04541744,14.9543025 3.86670661,19.4805415 C5.68799578,24.0067805 10.0681135,26.9799868 14.9469923,27.0017948 C19.8258711,27.0236027 24.232393,24.0896717 26.094072,19.579895 C27.9557511,15.0701184 26.9020287,9.88214616 23.4284943,6.45599786 C23.2927248,6.32392869 23.1526491,6.1963598 23.0084944,6.07349799 C22.3858054,5.53531223 22.2711247,4.61333124 22.7429945,3.93899869 C22.9693834,3.61565161 23.321185,3.40227078 23.712553,3.35092513 C24.103921,3.29957947 24.4988587,3.41499159 24.8009938,3.66899878 C25.1744937,3.98249866 25.4714936,4.25249857 25.6949935,4.47899851 C28.456414,7.28427077 30.0028574,11.0636277 30.000001,14.999995 C30.000001,23.2844922 23.2844943,29.99999 15.000001,29.99999 C6.71549986,29.99999 1.04799164e-06,23.2844922 1.04799164e-06,14.999995 C-0.00162408645,10.6504272 1.88690912,6.51481311 5.17500036,3.66749877 C5.48045635,3.41038839 5.87984801,3.2933765 6.27575668,3.34500436 C6.67166534,3.39663223 7.02769353,3.61215348 7.25699969,3.93899869 C7.72827851,4.61191339 7.61354629,5.53236398 6.99149978,6.06899799 L6.99149978,6.07049796 Z M13.4999976,13.5 L13.4999976,1.5 C13.4999976,0.671572655 14.1715702,0 14.9999976,0 C15.8284239,0 16.4999976,0.671572655 16.4999976,1.5 L16.4999976,13.5 C16.4999976,14.3284223 15.8284239,15 14.9999976,15 C14.1715702,15 13.4999976,14.3284223 13.4999976,13.5 L13.4999976,13.5 Z" id="形状"></path>
            </g>
        </g>
    </g>
</svg>