<?xml version="1.0" encoding="UTF-8"?>
<svg width="24px" height="25px" viewBox="0 0 24 25" version="1.1" xmlns="http://www.w3.org/2000/svg" xmlns:xlink="http://www.w3.org/1999/xlink">
    <title>kehuguanli-dianji</title>
    <g id="页面-1" stroke="none" stroke-width="1" >
        <g id="heyer管理员-客户管理" transform="translate(-38.000000, -201.000000)" >
            <g id="kehuguanli-dianji" transform="translate(38.000000, 201.000000)">
                <path d="M12.0015278,0 C8.57715446,0 5.80334732,2.79699739 5.80334732,6.25 C5.80334732,9.70300261 8.57715446,12.5 12.0015278,12.5 C15.4259011,12.5 18.1997083,9.70300261 18.1997083,6.25 C18.1997083,2.79699739 15.4259011,0 12.0015278,0 Z M12.0015278,12.5 C6.37947062,12.5 1.63130835,16.272846 0.113320543,21.4458225 C-0.407779748,23.2180157 0.935429076,25 2.76737171,25 L21.2324472,25 C23.0676265,25 24.4075987,23.2212794 23.8864984,21.4458225 C22.3717472,16.272846 17.623585,12.5 12.0015278,12.5 Z" id="形状" ></path>
                <path d="M12.0015278,13.1788512 C11.9432681,13.1788512 11.8850085,13.2114883 11.8623519,13.2767624 L10.0012795,18.2963446 C9.98185959,18.348564 9.99156953,18.4073107 10.0271727,18.4464752 L11.8882451,20.6331593 C11.917375,20.6690601 11.9594514,20.6853786 12.0015278,20.6853786 C12.0436042,20.6853786 12.0856806,20.6690601 12.1148105,20.6331593 L13.9758829,18.4464752 C14.0114861,18.404047 14.021196,18.3453003 14.0017761,18.2963446 L12.1407037,13.2767624 C12.1180471,13.2114883 12.0597875,13.1788512 12.0015278,13.1788512 L12.0015278,13.1788512 Z" id="路径" ></path>
            </g>
        </g>
    </g>
</svg>