<?xml version="1.0" encoding="UTF-8"?>
<svg width="20px" height="20px" viewBox="0 0 20 20" version="1.1" xmlns="http://www.w3.org/2000/svg" xmlns:xlink="http://www.w3.org/1999/xlink">
    <title>mima-tongyong</title>
    <g id="页面-1" stroke="none" stroke-width="1" fill="none" fill-rule="evenodd">
        <g id="登录页" transform="translate(-803.000000, -576.000000)" fill="#FFFFFF" fill-rule="nonzero">
            <g id="mima-tongyong" transform="translate(803.000000, 576.000000)">
                <path d="M18.4447252,6.82938284 L17.0619357,6.82938284 C16.9400104,3.04410562 13.8231971,0 10.0001118,0 C6.17702656,0 3.06021319,3.04410562 2.9385116,6.82938284 L1.55572209,6.82938284 C0.697994381,6.82938284 0,7.56160579 0,8.46161586 L0,18.3679906 C0,19.2680007 0.697994381,20.0002236 1.55549838,20.0002236 L18.4445015,20.0002236 C19.3022292,20.0002236 20,19.2680007 20,18.3679906 L20,8.46161586 C20.0002236,7.56160579 19.3022292,6.82938284 18.4447252,6.82938284 L18.4447252,6.82938284 Z M10.0001118,1.46332732 C13.0164766,1.46332732 15.4773542,3.85082605 15.5983847,6.82915913 L4.40183892,6.82915913 C4.52286936,3.85082605 6.98374698,1.46332732 10.0001118,1.46332732 Z M18.5368963,18.3679906 C18.5368963,18.4787301 18.4682154,18.5368963 18.4447252,18.5368963 L1.55549838,18.5368963 C1.53200818,18.5368963 1.46332732,18.4787301 1.46332732,18.3679906 L1.46332732,8.46161586 C1.46332732,8.35087636 1.53200818,8.29271016 1.55549838,8.29271016 L18.4445015,8.29271016 C18.4679917,8.29271016 18.5366726,8.35087636 18.5366726,8.46161586 L18.5366726,18.3679906 L18.5368963,18.3679906 Z" id="形状"></path>
                <path d="M10.487813,13.794114 L10.487813,11.7075134 C10.487813,11.4392778 10.2683475,11.2198122 10.0001118,11.2198122 C9.73187614,11.2198122 9.5124106,11.4392778 9.5124106,11.7075134 L9.5124106,13.794114 C9.22202704,13.9630196 9.0247094,14.2742088 9.0247094,14.6343918 C9.0247094,15.1731003 9.46162704,15.6100179 10.0003355,15.6100179 C10.539044,15.6100179 10.9759616,15.1731003 10.9759616,14.6343918 C10.9757379,14.2739851 10.7781966,13.9630196 10.487813,13.794114 Z" id="路径"></path>
            </g>
        </g>
    </g>
</svg>