<?xml version="1.0" encoding="UTF-8"?>
<svg width="24px" height="25px" viewBox="0 0 24 25" version="1.1" xmlns="http://www.w3.org/2000/svg" xmlns:xlink="http://www.w3.org/1999/xlink">
    <title>shiyongjilu备份</title>
    <g id="页面-1" stroke="none" stroke-width="1">
        <g id="heyer管理员-客户管理" transform="translate(-38.000000, -290.000000)" >
            <g id="shiyongjilu备份" transform="translate(38.000000, 290.000000)">
                <path d="M20.8,0 C22.5673112,0 24,1.39911016 24,3.12500001 L24,21.875 C24,23.6008898 22.5673112,25 20.8,25 L3.19999998,25 C1.43268879,25 0,23.6008898 0,21.875 L0,3.12500001 C0,1.39911017 1.43268879,0 3.19999998,0 L20.8,0 Z M14.584,8.53333334 L5.68266664,8.53333334 C5.48973518,8.53333334 5.33333334,8.68973522 5.33333334,8.88266668 L5.33333334,10.3173333 C5.33333334,10.5104 5.48959999,10.6666667 5.68266664,10.6666667 L14.584,10.6666667 C14.7769315,10.6666667 14.9333333,10.5102648 14.9333333,10.3173333 L14.9333333,8.88266668 C14.9333333,8.68973521 14.7769315,8.53333334 14.584,8.53333334 L14.584,8.53333334 Z M17.784,4.26666666 L5.68266664,4.26666666 C5.48973518,4.26666666 5.33333334,4.42306853 5.33333334,4.616 L5.33333334,6.05066668 C5.33333334,6.24373336 5.48959999,6.40000002 5.68266664,6.40000002 L17.784,6.40000002 C17.9769315,6.40000002 18.1333333,6.24359814 18.1333333,6.05066668 L18.1333333,4.616 C18.1333333,4.42306853 17.9769315,4.26666666 17.784,4.26666666 L17.784,4.26666666 Z" id="形状"></path>
            </g>
        </g>
    </g>
</svg>