<?xml version="1.0" encoding="UTF-8"?>
<svg width="20px" height="22px" viewBox="0 0 20 22" version="1.1" xmlns="http://www.w3.org/2000/svg" xmlns:xlink="http://www.w3.org/1999/xlink">
    <title>yonghu-7</title>
    <g id="页面-1" stroke="none" stroke-width="1" >
        <g id="登录页" transform="translate(-803.000000, -499.000000)">
            <g id="yonghu-7" transform="translate(803.000000, 499.000000)">
                <path d="M15.3333333,13.3333333 C17.9106622,13.3333333 20,15.4226712 20,18 L20,21.3333333 L0,21.3333333 L0,18 C0,15.4226712 2.08933783,13.3333333 4.66666667,13.3333333 L15.3333333,13.3333333 Z M15.3333333,14.6666667 L4.66666667,14.6666667 C2.8257175,14.6666667 1.33333333,16.1590508 1.33333333,18 L1.33333333,20 L18.6666667,20 L18.6666667,18 C18.6669371,16.2437396 17.3044774,14.788544 15.552,14.6733333 L15.3333333,14.6666667 Z M10,0 C13.3137085,0 16,2.6862915 16,6 C16,9.3137085 13.3137085,12 10,12 C6.6862915,12 4,9.3137085 4,6 C4,2.6862915 6.6862915,0 10,0 L10,0 Z M10,1.33333333 C7.42267117,1.33333333 5.33333333,3.42267117 5.33333333,6 C5.33333333,8.57732883 7.42267117,10.6666667 10,10.6666667 C12.5773288,10.6666667 14.6666667,8.57732883 14.6666667,6 C14.6666667,3.42267117 12.5773288,1.33333333 10,1.33333333 Z" id="形状"></path>
            </g>
        </g>
    </g>
</svg>